<?xml version="1.0" encoding="utf-8"?>
<!-- Generator: Adobe Illustrator 24.2.1, SVG Export Plug-In . SVG Version: 6.00 Build 0)  -->
<svg version="1.1" id="Capa_1" xmlns="http://www.w3.org/2000/svg" xmlns:xlink="http://www.w3.org/1999/xlink" x="0px" y="0px"
	 viewBox="0 0 511.6 511.6" style="enable-background:new 0 0 511.6 511.6;" xml:space="preserve">
<style type="text/css">
	.st0{fill:#039BE5;}
	.st1{fill:#FFFFFF;}
</style>
<circle class="st0" cx="256" cy="256" r="256"/>
<g>
	<g>
		<path class="st1" d="M138.5,212.1c3.7,2.6,14.7,10.3,33.2,23.1c18.5,12.8,32.6,22.7,42.5,29.6c1.1,0.8,3.4,2.4,6.9,4.9
			c3.5,2.5,6.4,4.6,8.7,6.2c2.3,1.6,5.1,3.3,8.4,5.3c3.3,1.9,6.4,3.4,9.3,4.4c2.9,1,5.6,1.5,8.1,1.5h0.2h0.2c2.5,0,5.2-0.5,8.1-1.5
			c2.9-1,6-2.4,9.3-4.4c3.3-1.9,6.1-3.7,8.4-5.3c2.3-1.6,5.2-3.6,8.7-6.2c3.5-2.5,5.8-4.2,6.9-4.9c9.9-6.9,35.2-24.5,75.8-52.7
			c7.9-5.5,14.5-12.2,19.8-19.9c5.3-7.8,7.9-15.9,7.9-24.5c0-7.1-2.6-13.2-7.7-18.3c-5.1-5.1-11.2-7.6-18.2-7.6H136.6
			c-8.3,0-14.7,2.8-19.2,8.4c-4.5,5.6-6.7,12.6-6.7,21.1c0,6.8,3,14.2,8.9,22.1C125.5,201.3,131.8,207.5,138.5,212.1z"/>
		<path class="st1" d="M384.8,229.4c-35.4,24-62.3,42.6-80.7,55.9c-6.2,4.5-11.2,8.1-15,10.6c-3.8,2.5-8.9,5.1-15.3,7.8
			c-6.4,2.6-12.3,4-17.8,4h-0.2h-0.2c-5.5,0-11.5-1.3-17.8-4c-6.4-2.6-11.5-5.2-15.3-7.8c-3.8-2.5-8.8-6.1-15-10.6
			c-14.6-10.7-41.4-29.3-80.5-55.9c-6.2-4.1-11.6-8.8-16.4-14.1V344c0,7.1,2.5,13.2,7.6,18.3c5.1,5.1,11.2,7.6,18.3,7.6h238.5
			c7.1,0,13.2-2.5,18.3-7.6c5.1-5.1,7.6-11.2,7.6-18.3V215.3C396.4,220.5,391,225.2,384.8,229.4z"/>
	</g>
</g>
</svg>
