<?xml version="1.0" encoding="utf-8"?>
<!-- Generator: Adobe Illustrator 24.2.1, SVG Export Plug-In . SVG Version: 6.00 Build 0)  -->
<svg version="1.1" id="Capa_1" xmlns="http://www.w3.org/2000/svg" xmlns:xlink="http://www.w3.org/1999/xlink" x="0px" y="0px"
	 viewBox="0 0 512 512" style="enable-background:new 0 0 512 512;" xml:space="preserve">
<style type="text/css">
	.st0{fill:#4DA6FF;}
	.st1{fill:#3377FF;}
	.st2{fill:#59C36A;}
	.st3{fill:#97DE3D;}
</style>
<g>
	<path class="st0" d="M462.45,211l37.29-30C467.72,76.78,370.72,0,256,0c-11.11,0-21.98,0.95-33.71,2.33L22.81,361
		C63.85,449.4,152.64,512,256,512c114.72,0,211.72-76.78,243.75-181l-37.29-30V211z"/>
	<path class="st1" d="M499.75,331l-37.29-30v-90l37.29-30C467.72,76.78,370.72,0,256,0v512C370.72,512,467.72,435.22,499.75,331z"/>
	<path class="st2" d="M499.75,181h-37.29l-63.16,31.58L361,249.79v45.48L432.46,331h67.29c7.29-23.72,12.25-48.89,12.25-75
		S507.04,204.72,499.75,181z"/>
	<g>
		<path class="st3" d="M325.27,121H301V96.73l-45-22.5l-17.12-8.56L223.29,2.33C97.94,18.42,0,126.28,0,256
			c0,37.48,9.29,72.95,23.81,105h58.4l26.75-26.75l60,30L217.21,316L181,279.79V271h54.27L256,229.54l6.71-13.42l56.25,28.13
			l45.29-45.29L325.27,121z"/>
		<path class="st2" d="M318.96,244.25l45.29-45.29L325.27,121H301V96.73l-45-22.5v155.31l6.71-13.42L318.96,244.25z"/>
		<path class="st3" d="M322.21,361l-30-30H256h-6.21L211,369.79v42.42l40.94,40.96l4.06-1.35l105-35V361H322.21z"/>
		<path class="st2" d="M361,361h-38.79l-30-30H256v120.82l105-35V361z"/>
	</g>
</g>
</svg>
